<svg width="92" height="92" viewBox="0 0 92 92" fill="none" xmlns="http://www.w3.org/2000/svg">
<rect width="92" height="92" rx="24" fill="white"/>
<path fill-rule="evenodd" clip-rule="evenodd" d="M67.4512 49.0762V66.3713C67.4512 69.4647 65.0269 71.9997 62.0631 71.9997H29.9701C27.0063 71.9997 24.582 69.4647 24.582 66.3713V49.0762H41.2481V56.587L46.0166 59.7204L50.7851 56.587V49.0762H67.4512Z" fill="url(#paint0_linear_22728_10158)"/>
<path fill-rule="evenodd" clip-rule="evenodd" d="M42.9185 49.0762V55.6847L46.0166 57.7202L49.1146 55.6847V49.0762H42.9185Z" fill="url(#paint1_linear_22728_10158)"/>
<path fill-rule="evenodd" clip-rule="evenodd" d="M26.0734 29.1426H65.9599C67.8423 29.1426 69.3808 30.8507 69.3808 32.938V43.1912C69.3808 45.2786 67.8423 46.9867 65.9599 46.9867H50.314H41.7194H26.0734C24.191 46.9867 22.6526 45.2786 22.6526 43.1912V32.938C22.6526 30.8507 24.191 29.1426 26.0734 29.1426Z" fill="url(#paint2_linear_22728_10158)"/>
<path fill-rule="evenodd" clip-rule="evenodd" d="M37.712 19.9551H54.3215C55.8647 19.9551 57.1275 21.2179 57.1275 22.761V27.1384H53.57V24.5516C53.57 23.8542 52.9998 23.2817 52.3024 23.2817H39.731C39.0337 23.2817 38.4635 23.8542 38.4635 24.5516V27.1384H34.906V22.761C34.906 21.2179 36.1688 19.9551 37.712 19.9551Z" fill="url(#paint3_linear_22728_10158)"/>
<defs>
<linearGradient id="paint0_linear_22728_10158" x1="46.0166" y1="49.0762" x2="46.0166" y2="71.9997" gradientUnits="userSpaceOnUse">
<stop stop-color="#EF8080"/>
<stop offset="1" stop-color="#F0145A"/>
</linearGradient>
<linearGradient id="paint1_linear_22728_10158" x1="46.0166" y1="49.0762" x2="46.0166" y2="57.7202" gradientUnits="userSpaceOnUse">
<stop stop-color="#EF8080"/>
<stop offset="1" stop-color="#F0145A"/>
</linearGradient>
<linearGradient id="paint2_linear_22728_10158" x1="46.0167" y1="29.1426" x2="46.0167" y2="46.9867" gradientUnits="userSpaceOnUse">
<stop stop-color="#EF8080"/>
<stop offset="1" stop-color="#F0145A"/>
</linearGradient>
<linearGradient id="paint3_linear_22728_10158" x1="46.0167" y1="19.9551" x2="46.0167" y2="27.1384" gradientUnits="userSpaceOnUse">
<stop stop-color="#EF8080"/>
<stop offset="1" stop-color="#F0145A"/>
</linearGradient>
</defs>
</svg>
